0
SECTION
2
HEADER
9
$INSUNITS
70
4
9
$ACADVER
1
AC1014
9
$HANDSEED
5
FFFF
0
ENDSEC
0
SECTION
2
TABLES
0
TABLE
2
VPORT
5
8
100
AcDbSymbolTable
0
ENDTAB
0
TABLE
2
LTYPE
5
5
100
AcDbSymbolTable
0
LTYPE
5
14
100
AcDbSymbolTableRecord
100
AcDbLinetypeTableRecord
2
BYBLOCK
70
0
0
LTYPE
5
15
100
AcDbSymbolTableRecord
100
AcDbLinetypeTableRecord
2
BYLAYER
70
0
0
ENDTAB
0
TABLE
2
LAYER
5
2
100
AcDbSymbolTable
70
2
0
LAYER
5
50
100
AcDbSymbolTableRecord
100
AcDbLayerTableRecord
2
0
70
0
6
CONTINUOUS
0
ENDTAB
0
TABLE
2
STYLE
5
3
100
AcDbSymbolTable
70
1
0
STYLE
5
11
100
AcDbSymbolTableRecord
100
AcDbTextStyleTableRecord
2
STANDARD
70
0
0
ENDTAB
0
TABLE
2
VIEW
5
6
100
AcDbSymbolTable
70
0
0
ENDTAB
0
TABLE
2
UCS
5
7
100
AcDbSymbolTable
70
0
0
ENDTAB
0
TABLE
2
APPID
5
9
100
AcDbSymbolTable
70
2
0
APPID
5
12
100
AcDbSymbolTableRecord
100
AcDbRegAppTableRecord
2
ACAD
70
0
0
ENDTAB
0
TABLE
2
DIMSTYLE
5
A
100
AcDbSymbolTable
70
1
0
ENDTAB
0
TABLE
2
BLOCK_RECORD
5
1
100
AcDbSymbolTable
70
1
0
BLOCK_RECORD
5
1F
100
AcDbSymbolTableRecord
100
AcDbBlockTableRecord
2
*MODEL_SPACE
0
BLOCK_RECORD
5
1B
100
AcDbSymbolTableRecord
100
AcDbBlockTableRecord
2
*PAPER_SPACE
0
ENDTAB
0
ENDSEC
0
SECTION
2
BLOCKS
0
BLOCK
5
20
100
AcDbEntity
100
AcDbBlockBegin
2
*MODEL_SPACE
0
ENDBLK
5
21
100
AcDbEntity
100
AcDbBlockEnd
0
BLOCK
5
1C
100
AcDbEntity
100
AcDbBlockBegin
2
*PAPER_SPACE
0
ENDBLK
5
1D
100
AcDbEntity
100
AcDbBlockEnd
0
ENDSEC
0
SECTION
2
ENTITIES
0
LINE
5
100
100
AcDbEntity
8
0
100
AcDbLine
10
-148.5
20
77.312499999999972
30
0
11
-148.5
21
-132.68750000000003
31
0
0
LINE
5
101
100
AcDbEntity
8
0
100
AcDbLine
10
148.5
20
77.312499999999972
30
0
11
-148.5
21
77.312499999999972
31
0
0
LINE
5
102
100
AcDbEntity
8
0
100
AcDbLine
10
148.5
20
-132.68750000000003
30
0
11
148.5
21
77.312499999999972
31
0
0
LWPOLYLINE
5
103
100
AcDbEntity
8
0
100
AcDbPolyline
90
4
70
1
43
0.0
10
-88.472942257152809
20
-129.92325335206471
10
-88.472942257152809
20
-114.78662344590964
10
-116.503875545501
20
-114.78662344590964
10
-116.503875545501
20
-129.92325335206471
0
LINE
5
104
100
AcDbEntity
8
0
100
AcDbLine
10
-95.266412171904236
20
-123.63332720617626
30
0
11
-107.96641216872928
21
-123.63332720617626
31
0
0
LINE
5
105
100
AcDbEntity
8
0
100
AcDbLine
10
107.95010270377794
20
-123.63332720617628
30
0
11
95.250102706952973
21
-123.63332720617628
31
0
0
LWPOLYLINE
5
106
100
AcDbEntity
8
0
100
AcDbPolyline
90
4
70
1
43
0.0
10
8.7982952402307664
20
-129.92325335206471
10
8.7982952402307664
20
-115.01122213970113
10
-8.7980682468523224
20
-115.01122213970113
10
-8.7980682468523224
20
-129.92325335206471
0
LINE
5
107
100
AcDbEntity
8
0
100
AcDbLine
10
95.250102706952973
20
-120.45832720697001
30
0
11
107.95010270377794
21
-120.45832720697001
31
0
0
SPLINE
5
108
100
AcDbEntity
8
0
100
AcDbSpline
70
0
71
3
72
11
73
7
74
0
42
0.000000001
43
0.0000000001
44
0.0000000001
40
1
40
1
40
1
40
1
40
2
40
2
40
2
40
3
40
3
40
3
40
3
10
107.95010270377794
20
-120.45832720697001
30
0
10
108.82685797292758
20
-120.45832720697001
30
0
10
109.53760270338108
20
-121.16909346927062
30
0
10
109.53760270338108
20
-122.04582720657315
30
0
10
109.53760270338108
20
-122.92258247572246
30
0
10
108.82685797292758
20
-123.63332720617628
30
0
10
107.95010270377794
20
-123.63332720617628
30
0
0
LWPOLYLINE
5
109
100
AcDbEntity
8
0
100
AcDbPolyline
90
4
70
1
43
0.0
10
88.456654324048785
20
-129.92325335206473
10
116.48756608055017
20
-129.92325335206473
10
116.48756608055017
20
-114.78662344590965
10
88.456654324048785
20
-114.78662344590965
0
SPLINE
5
110
100
AcDbEntity
8
0
100
AcDbSpline
70
0
71
3
72
11
73
7
74
0
42
0.000000001
43
0.0000000001
44
0.0000000001
40
4
40
4
40
4
40
4
40
5
40
5
40
5
40
6
40
6
40
6
40
6
10
95.250102706952973
20
-123.63332720617628
30
0
10
94.373347437803972
20
-123.63332720617628
30
0
10
93.662602707349834
20
-122.92258247572244
30
0
10
93.662602707349834
20
-122.04582720657315
30
0
10
93.662602707349834
20
-121.16909346927062
30
0
10
94.373347437803972
20
-120.45832720697001
30
0
10
95.250102706952973
20
-120.45832720697001
30
0
0
SPLINE
5
111
100
AcDbEntity
8
0
100
AcDbSpline
70
0
71
3
72
11
73
7
74
0
42
0.000000001
43
0.0000000001
44
0.0000000001
40
4
40
4
40
4
40
4
40
5
40
5
40
5
40
6
40
6
40
6
40
6
10
-107.96641216872928
20
-123.63332720617626
30
0
10
-108.84316743787846
20
-123.63332720617626
30
0
10
-109.55391216833227
20
-122.92258247572242
30
0
10
-109.55391216833227
20
-122.04582720657312
30
0
10
-109.55391216833227
20
-121.16909346927061
30
0
10
-108.84316743787846
20
-120.45832720697
30
0
10
-107.96641216872928
20
-120.45832720697
30
0
0
SPLINE
5
112
100
AcDbEntity
8
0
100
AcDbSpline
70
0
71
3
72
11
73
7
74
0
42
0.000000001
43
0.0000000001
44
0.0000000001
40
1
40
1
40
1
40
1
40
2
40
2
40
2
40
3
40
3
40
3
40
3
10
-95.266412171904236
20
-120.45832720697
30
0
10
-94.38965690275478
20
-120.45832720697
30
0
10
-93.678912172301025
20
-121.16909346927061
30
0
10
-93.678912172301025
20
-122.04582720657314
30
0
10
-93.678912172301025
20
-122.92258247572242
30
0
10
-94.38965690275478
20
-123.63332720617626
30
0
10
-95.266412171904236
20
-123.63332720617626
30
0
0
LINE
5
113
100
AcDbEntity
8
0
100
AcDbLine
10
-107.96641216872928
20
-120.45832720697
30
0
11
-95.266412171904236
21
-120.45832720697
31
0
0
CIRCLE
5
114
100
AcDbEntity
8
0
100
AcDbCircle
10
5.1365382898937648e-05
20
-122.04582720575758
30
0
40
3.1749999999999998
210
0
220
0
230
1
0
ENDSEC
0
SECTION
2
OBJECTS
0
DICTIONARY
5
C
100
AcDbDictionary
3
ACAD_GROUP
350
D
3
ACAD_MLINESTYLE
350
17
0
DICTIONARY
5
D
100
AcDbDictionary
0
DICTIONARY
5
1A
330
C
100
AcDbDictionary
0
DICTIONARY
5
17
100
AcDbDictionary
0
ENDSEC
0
EOF
