0
SECTION
2
HEADER
9
$INSUNITS
70
4
9
$ACADVER
1
AC1014
9
$HANDSEED
5
FFFF
0
ENDSEC
0
SECTION
2
TABLES
0
TABLE
2
VPORT
5
8
100
AcDbSymbolTable
0
ENDTAB
0
TABLE
2
LTYPE
5
5
100
AcDbSymbolTable
0
LTYPE
5
14
100
AcDbSymbolTableRecord
100
AcDbLinetypeTableRecord
2
BYBLOCK
70
0
0
LTYPE
5
15
100
AcDbSymbolTableRecord
100
AcDbLinetypeTableRecord
2
BYLAYER
70
0
0
ENDTAB
0
TABLE
2
LAYER
5
2
100
AcDbSymbolTable
70
2
0
LAYER
5
50
100
AcDbSymbolTableRecord
100
AcDbLayerTableRecord
2
0
70
0
6
CONTINUOUS
0
ENDTAB
0
TABLE
2
STYLE
5
3
100
AcDbSymbolTable
70
1
0
STYLE
5
11
100
AcDbSymbolTableRecord
100
AcDbTextStyleTableRecord
2
STANDARD
70
0
0
ENDTAB
0
TABLE
2
VIEW
5
6
100
AcDbSymbolTable
70
0
0
ENDTAB
0
TABLE
2
UCS
5
7
100
AcDbSymbolTable
70
0
0
ENDTAB
0
TABLE
2
APPID
5
9
100
AcDbSymbolTable
70
2
0
APPID
5
12
100
AcDbSymbolTableRecord
100
AcDbRegAppTableRecord
2
ACAD
70
0
0
ENDTAB
0
TABLE
2
DIMSTYLE
5
A
100
AcDbSymbolTable
70
1
0
ENDTAB
0
TABLE
2
BLOCK_RECORD
5
1
100
AcDbSymbolTable
70
1
0
BLOCK_RECORD
5
1F
100
AcDbSymbolTableRecord
100
AcDbBlockTableRecord
2
*MODEL_SPACE
0
BLOCK_RECORD
5
1B
100
AcDbSymbolTableRecord
100
AcDbBlockTableRecord
2
*PAPER_SPACE
0
ENDTAB
0
ENDSEC
0
SECTION
2
BLOCKS
0
BLOCK
5
20
100
AcDbEntity
100
AcDbBlockBegin
2
*MODEL_SPACE
0
ENDBLK
5
21
100
AcDbEntity
100
AcDbBlockEnd
0
BLOCK
5
1C
100
AcDbEntity
100
AcDbBlockBegin
2
*PAPER_SPACE
0
ENDBLK
5
1D
100
AcDbEntity
100
AcDbBlockEnd
0
ENDSEC
0
SECTION
2
ENTITIES
0
LWPOLYLINE
5
100
100
AcDbEntity
8
0
100
AcDbPolyline
90
4
70
1
43
0.0
10
105
20
148.5
10
-105
20
148.5
10
-105
20
-148.5
10
105
20
-148.5
0
LWPOLYLINE
5
101
100
AcDbEntity
8
0
100
AcDbPolyline
90
8
70
1
43
0.0
10
93.096904972450858
20
-89.680000000000007
10
-86.124449999999939
20
-89.679999999999978
10
-95.000001415610313
20
-89.679999999999978
10
-95.000001415610313
20
-127.54428584182347
10
-95.000001415610313
20
-130.31999999999994
10
-86.124449999999939
20
-130.31999999999994
10
95.000001415610313
20
-130.32000000000008
10
95.000001415610313
20
-89.680000000000007
0
LINE
5
102
100
AcDbEntity
8
0
100
AcDbLine
10
-86.124449999999939
20
-89.679999999999978
30
0
11
-86.124449999999939
21
-130.31999999999994
31
0
0
LINE
5
103
100
AcDbEntity
8
0
100
AcDbLine
10
-13.875549999999954
20
-130.31999999999999
30
0
11
-13.875549999999954
21
-89.680000000000007
31
0
0
LINE
5
104
100
AcDbEntity
8
0
100
AcDbLine
10
77.950791863114901
20
-130.32000000000002
30
0
11
77.950791863114901
21
-89.680000000000007
31
0
0
LINE
5
105
100
AcDbEntity
8
0
100
AcDbLine
10
30.628367041129678
20
-130.32000000000002
30
0
11
30.628367041129682
21
-89.680000000000007
31
0
0
LWPOLYLINE
5
106
100
AcDbEntity
8
0
100
AcDbPolyline
90
5
70
1
43
0.0
10
-95.000001415610313
20
-86.944285841823458
10
-95.000001415610313
20
-49.079999999999977
10
-86.124449999999939
20
-49.079999999999977
10
-86.124449999999939
20
-89.719999999999942
10
-95.000001415610313
20
-89.719999999999942
0
LINE
5
107
100
AcDbEntity
8
0
100
AcDbLine
10
95.000001415610313
20
-89.720000000000084
30
0
11
-86.124449999999939
21
-89.719999999999942
31
0
0
LINE
5
108
100
AcDbEntity
8
0
100
AcDbLine
10
30.628367041129678
20
-89.720000000000013
30
0
11
30.628367041129682
21
-49.079999999999998
31
0
0
LINE
5
109
100
AcDbEntity
8
0
100
AcDbLine
10
95.000001415610313
20
-89.720000000000084
30
0
11
95.000001415610313
21
-49.079999999999998
31
0
0
LINE
5
110
100
AcDbEntity
8
0
100
AcDbLine
10
77.950791863114901
20
-89.720000000000013
30
0
11
77.950791863114901
21
-49.079999999999998
31
0
0
LINE
5
111
100
AcDbEntity
8
0
100
AcDbLine
10
95.000001415610313
20
-49.079999999999998
30
0
11
93.096904972450858
21
-49.079999999999998
31
0
0
LINE
5
112
100
AcDbEntity
8
0
100
AcDbLine
10
-13.875549999999954
20
-89.719999999999999
30
0
11
-13.875549999999954
21
-49.079999999999998
31
0
0
LINE
5
113
100
AcDbEntity
8
0
100
AcDbLine
10
93.096904972450858
20
-49.079999999999998
30
0
11
-86.124449999999939
21
-49.079999999999977
31
0
0
LWPOLYLINE
5
114
100
AcDbEntity
8
0
100
AcDbPolyline
90
5
70
1
43
0.0
10
-95.000001415610313
20
-46.344285841823449
10
-95.000001415610313
20
-8.479999999999972
10
-86.124449999999939
20
-8.479999999999972
10
-86.124449999999939
20
-49.119999999999933
10
-95.000001415610313
20
-49.119999999999933
0
LINE
5
115
100
AcDbEntity
8
0
100
AcDbLine
10
95.000001415610313
20
-49.120000000000076
30
0
11
-86.124449999999939
21
-49.119999999999933
31
0
0
LINE
5
116
100
AcDbEntity
8
0
100
AcDbLine
10
30.628367041129678
20
-49.120000000000005
30
0
11
30.628367041129682
21
-8.4799999999999898
31
0
0
LINE
5
117
100
AcDbEntity
8
0
100
AcDbLine
10
95.000001415610313
20
-49.120000000000076
30
0
11
95.000001415610313
21
-8.4799999999999898
31
0
0
LINE
5
118
100
AcDbEntity
8
0
100
AcDbLine
10
77.950791863114901
20
-49.120000000000005
30
0
11
77.950791863114901
21
-8.4799999999999898
31
0
0
LINE
5
119
100
AcDbEntity
8
0
100
AcDbLine
10
95.000001415610313
20
-8.4799999999999898
30
0
11
93.096904972450858
21
-8.4799999999999898
31
0
0
LINE
5
120
100
AcDbEntity
8
0
100
AcDbLine
10
-13.875549999999954
20
-49.11999999999999
30
0
11
-13.875549999999954
21
-8.4799999999999898
31
0
0
LINE
5
121
100
AcDbEntity
8
0
100
AcDbLine
10
93.096904972450858
20
-8.4799999999999898
30
0
11
-86.124449999999939
21
-8.479999999999972
31
0
0
LWPOLYLINE
5
122
100
AcDbEntity
8
0
100
AcDbPolyline
90
5
70
1
43
0.0
10
-95.000001415610313
20
-5.7442858418234444
10
-95.000001415610313
20
32.120000000000033
10
-86.124449999999939
20
32.120000000000033
10
-86.124449999999939
20
-8.5199999999999321
10
-95.000001415610313
20
-8.5199999999999321
0
LINE
5
123
100
AcDbEntity
8
0
100
AcDbLine
10
95.000001415610313
20
-8.5200000000000742
30
0
11
-86.124449999999939
21
-8.5199999999999321
31
0
0
LINE
5
124
100
AcDbEntity
8
0
100
AcDbLine
10
30.628367041129678
20
-8.5200000000000031
30
0
11
30.628367041129682
21
32.120000000000019
31
0
0
LINE
5
125
100
AcDbEntity
8
0
100
AcDbLine
10
95.000001415610313
20
-8.5200000000000742
30
0
11
95.000001415610313
21
32.120000000000019
31
0
0
LINE
5
126
100
AcDbEntity
8
0
100
AcDbLine
10
77.950791863114901
20
-8.5200000000000031
30
0
11
77.950791863114901
21
32.120000000000019
31
0
0
LINE
5
127
100
AcDbEntity
8
0
100
AcDbLine
10
95.000001415610313
20
32.120000000000019
30
0
11
93.096904972450858
21
32.120000000000019
31
0
0
LINE
5
128
100
AcDbEntity
8
0
100
AcDbLine
10
-13.875549999999954
20
-8.5199999999999854
30
0
11
-13.875549999999954
21
32.120000000000019
31
0
0
LINE
5
129
100
AcDbEntity
8
0
100
AcDbLine
10
93.096904972450858
20
32.120000000000019
30
0
11
-86.124449999999939
21
32.120000000000033
31
0
0
LWPOLYLINE
5
130
100
AcDbEntity
8
0
100
AcDbPolyline
90
5
70
1
43
0.0
10
-95.000001415610313
20
34.855714158176561
10
-95.000001415610313
20
72.720000000000041
10
-86.124449999999939
20
72.720000000000041
10
-86.124449999999939
20
32.080000000000069
10
-95.000001415610313
20
32.080000000000069
0
LINE
5
131
100
AcDbEntity
8
0
100
AcDbLine
10
95.000001415610313
20
32.079999999999927
30
0
11
-86.124449999999939
21
32.080000000000069
31
0
0
LINE
5
132
100
AcDbEntity
8
0
100
AcDbLine
10
30.628367041129678
20
32.079999999999998
30
0
11
30.628367041129682
21
72.720000000000027
31
0
0
LINE
5
133
100
AcDbEntity
8
0
100
AcDbLine
10
95.000001415610313
20
32.079999999999927
30
0
11
95.000001415610313
21
72.720000000000027
31
0
0
LINE
5
134
100
AcDbEntity
8
0
100
AcDbLine
10
77.950791863114901
20
32.079999999999998
30
0
11
77.950791863114901
21
72.720000000000027
31
0
0
LINE
5
135
100
AcDbEntity
8
0
100
AcDbLine
10
95.000001415610313
20
72.720000000000027
30
0
11
93.096904972450858
21
72.720000000000027
31
0
0
LINE
5
136
100
AcDbEntity
8
0
100
AcDbLine
10
-13.875549999999954
20
32.08000000000002
30
0
11
-13.875549999999954
21
72.720000000000027
31
0
0
LINE
5
137
100
AcDbEntity
8
0
100
AcDbLine
10
93.096904972450858
20
72.720000000000027
30
0
11
-86.124449999999939
21
72.720000000000041
31
0
0
LWPOLYLINE
5
138
100
AcDbEntity
8
0
100
AcDbPolyline
90
5
70
1
43
0.0
10
-95.000001415610313
20
75.45571415817659
10
-95.000001415610313
20
113.32000000000006
10
-86.124449999999939
20
113.32000000000006
10
-86.124449999999939
20
72.680000000000092
10
-95.000001415610313
20
72.680000000000092
0
LINE
5
139
100
AcDbEntity
8
0
100
AcDbLine
10
95.000001415610313
20
72.67999999999995
30
0
11
-86.124449999999939
21
72.680000000000092
31
0
0
LINE
5
140
100
AcDbEntity
8
0
100
AcDbLine
10
30.628367041129678
20
72.680000000000021
30
0
11
30.628367041129682
21
113.32000000000005
31
0
0
LINE
5
141
100
AcDbEntity
8
0
100
AcDbLine
10
95.000001415610313
20
72.67999999999995
30
0
11
95.000001415610313
21
113.32000000000005
31
0
0
LINE
5
142
100
AcDbEntity
8
0
100
AcDbLine
10
77.950791863114901
20
72.680000000000021
30
0
11
77.950791863114901
21
113.32000000000005
31
0
0
LINE
5
143
100
AcDbEntity
8
0
100
AcDbLine
10
95.000001415610313
20
113.32000000000005
30
0
11
93.096904972450858
21
113.32000000000005
31
0
0
LINE
5
144
100
AcDbEntity
8
0
100
AcDbLine
10
-13.875549999999954
20
72.680000000000035
30
0
11
-13.875549999999954
21
113.32000000000005
31
0
0
LINE
5
145
100
AcDbEntity
8
0
100
AcDbLine
10
93.096904972450858
20
113.32000000000005
30
0
11
-86.124449999999939
21
113.32000000000006
31
0
0
ENDSEC
0
SECTION
2
OBJECTS
0
DICTIONARY
5
C
100
AcDbDictionary
3
ACAD_GROUP
350
D
3
ACAD_MLINESTYLE
350
17
0
DICTIONARY
5
D
100
AcDbDictionary
0
DICTIONARY
5
1A
330
C
100
AcDbDictionary
0
DICTIONARY
5
17
100
AcDbDictionary
0
ENDSEC
0
EOF
